<?xml version="1.0" standalone="no"?>
<!DOCTYPE svg PUBLIC "-//W3C//DTD SVG 20010904//EN"
 "http://www.w3.org/TR/2001/REC-SVG-20010904/DTD/svg10.dtd">
<svg version="1.0" xmlns="http://www.w3.org/2000/svg"
 width="467.000000pt" height="534.000000pt" viewBox="0 0 467.000000 534.000000"
 preserveAspectRatio="xMidYMid meet">

<g transform="translate(0.000000,534.000000) scale(0.100000,-0.100000)"
fill="#000000" stroke="none">
<path d="M2160 5100 c-551 -77 -1002 -446 -1174 -960 -72 -216 -90 -472 -48
-660 99 -430 424 -1096 955 -1950 131 -211 436 -680 442 -680 2 0 75 109 162
243 358 544 667 1069 882 1497 144 288 211 442 281 647 75 219 93 313 93 478
-2 654 -476 1227 -1131 1365 -111 24 -359 34 -462 20z m352 -719 c178 -46 341
-167 437 -325 18 -31 47 -95 64 -143 29 -82 31 -98 31 -223 0 -125 -2 -141
-31 -223 -53 -151 -138 -267 -256 -351 -138 -97 -258 -136 -422 -136 -164 0
-284 39 -422 136 -118 84 -203 200 -256 351 -30 83 -32 96 -31 223 1 118 4
145 27 215 76 232 268 414 501 475 98 26 258 26 358 1z"/>
<path d="M868 1128 c-191 -238 -448 -559 -572 -713 l-224 -280 1128 -3 c621
-1 1639 -1 2263 0 l1135 3 -571 713 -572 712 -227 0 -227 0 -61 -97 -61 -98
241 -5 241 -5 410 -510 409 -510 -919 -3 c-506 -1 -1336 -1 -1846 0 l-926 3
412 512 411 513 239 2 240 3 -61 98 -61 97 -227 0 -227 0 -347 -432z"/>
</g>
</svg>
